<svg viewBox="0 0 406 306" xmlns:xlink="http://www.w3.org/1999/xlink" xmlns="http://www.w3.org/2000/svg" id="Layer_1"><defs><style>.cls-1{fill:#296eff;}.cls-2,.cls-5{opacity:0.19;}.cls-11,.cls-3,.cls-5{fill:#020202;}.cls-4{fill:#ff681c;}.cls-11,.cls-5{isolation:isolate;}.cls-6{opacity:0.27;}.cls-7{fill:#ffbaa8;}.cls-8{fill:#473f47;}.cls-9{fill:url(#linear-gradient);}.cls-10{fill:#fff;}.cls-11{opacity:0.1;}.cls-12{fill:url(#linear-gradient-2);}</style><linearGradient gradientUnits="userSpaceOnUse" gradientTransform="matrix(1.32, 0, 0, -1.32, 52.92, 434.56)" y2="176.86" x2="99.16" y1="195.68" x1="104.89" id="linear-gradient"><stop offset="0.01"></stop><stop stop-opacity="0.69" offset="0.13"></stop><stop stop-opacity="0.32" offset="0.25"></stop><stop stop-opacity="0" offset="1"></stop></linearGradient><linearGradient xlink:href="#linear-gradient" y2="202.86" x2="115.04" y1="169.21" x1="116.45" id="linear-gradient-2"></linearGradient></defs><g id="Q83r0t"><path d="M346.81,157.93a6,6,0,0,1-3.72-2.88c-.6-1-1.14-2.12-1.74-3.15a5.47,5.47,0,0,0-5.69-2.93,5.55,5.55,0,0,0-4.91,4.12c-.4,1.22-.7,2.46-1.11,3.68a6.05,6.05,0,0,1-7.59,4h0c-2.3-.65-4.61-1.32-6.9-2a6.15,6.15,0,0,1-4.31-7.54.74.74,0,0,0,0-.14c.33-1.23.76-2.44,1.07-3.68a5.48,5.48,0,0,0-2-6,5.3,5.3,0,0,0-6.14-.59c-1.07.54-2.1,1.16-3.17,1.71a6.24,6.24,0,0,1-8.46-2.51l-.06-.13c-1.21-2.16-2.42-4.32-3.59-6.52a6,6,0,0,1,2.12-8.28l.37-.2c1-.57,2.05-1.08,3.05-1.66a5.28,5.28,0,0,0,2.89-5.47,5.41,5.41,0,0,0-3.88-4.94c-1.21-.43-2.47-.72-3.68-1.11a6.15,6.15,0,0,1-4.36-7.51c0-.17.1-.35.16-.52.64-2.17,1.32-4.36,1.93-6.59a6,6,0,0,1,7.19-4.35c1.32.27,2.55.69,3.82,1.06a5.62,5.62,0,0,0,6.4-1.75,5.56,5.56,0,0,0,.37-6.6c-.54-1-1.1-1.94-1.6-3a6,6,0,0,1,2.36-8.11l0,0c2.34-1.32,4.71-2.64,7.11-3.78a6.19,6.19,0,0,1,8.16,2.52c.62,1.06,1.17,2.19,1.81,3.24a5.34,5.34,0,0,0,5.5,2.79,5.41,5.41,0,0,0,4.89-4c.37-1.15.66-2.31,1-3.46a6.22,6.22,0,0,1,7.58-4.46l.51.16,6.41,1.89a6.16,6.16,0,0,1,4.53,7.46l-.09.35c-.28,1.12-.64,2.21-1,3.32a5.77,5.77,0,0,0,8.37,6.75c1-.53,1.95-1.09,2.94-1.6A6.23,6.23,0,0,1,371.88,88h0c1.27,2.23,2.5,4.47,3.71,6.73a6,6,0,0,1-2.23,8.19l-.23.12c-1.08.61-2.19,1.15-3.27,1.77a5.7,5.7,0,0,0,.62,10.15c1.26.51,2.64.81,4,1.22a5.65,5.65,0,0,1,4.27,6.75,4.94,4.94,0,0,1-.15.55c-.65,2.52-1.39,5-2.19,7.5a5.77,5.77,0,0,1-7,4.15,6.21,6.21,0,0,1-.61-.2c-1.15-.31-2.3-.71-3.46-1a5.36,5.36,0,0,0-5.8,2.11,5.27,5.27,0,0,0-.52,6c.57,1.1,1.22,2.15,1.8,3.25a6,6,0,0,1-2.29,8.25l-.15.09c-2.23,1.32-4.49,2.47-6.75,3.68A6,6,0,0,1,346.81,157.93ZM313,108.4a19,19,0,1,0,0-.08Z" class="cls-1"></path></g><g id="Q83r0t-2"><path d="M263,263a13.74,13.74,0,0,1-9.92-4c-2-1.87-3.81-3.88-5.78-5.73-4.15-3.88-8.92-5-14.22-2.76A12.59,12.59,0,0,0,225,262.64c-.07,2.9.07,5.8-.07,8.69a13.68,13.68,0,0,1-13.89,13.48H194.66a13.92,13.92,0,0,1-14.16-13.66v-.32c-.07-2.9,0-5.8,0-8.69a12.29,12.29,0,0,0-8.21-11.64,12.07,12.07,0,0,0-13.73,2.64c-2,1.84-3.82,3.85-5.78,5.72a14.14,14.14,0,0,1-20,0l-.18-.18q-6-5.91-11.87-11.88c-5.82-5.93-5.8-14.12,0-20.05,1.83-1.87,3.76-3.64,5.57-5.54a12.15,12.15,0,0,0,2.82-13.71,12.34,12.34,0,0,0-11.6-8.28c-2.89-.14-5.79,0-8.7-.08-8.68-.32-14.18-6.07-14.19-14.76V169a13.61,13.61,0,0,1,12.86-14c3-.25,6-.16,9-.16,6,0,10.23-2.63,12.59-8.12,2.23-5.16,1-10.17-3.39-14.52-1.78-1.78-3.61-3.54-5.28-5.37a13.57,13.57,0,0,1,0-19.2l0,0q6.36-6.6,13-12.76a14.05,14.05,0,0,1,19.29.2c2,1.93,4,4,6,5.91a12.09,12.09,0,0,0,13.75,2.54,12.31,12.31,0,0,0,8.13-11.7c.06-2.63,0-5.42,0-8.12.19-8.73,6.08-14.52,14.82-14.52h15.16c8.38,0,14.26,5.71,14.51,14.16.11,2.64,0,5.28,0,7.92a12.51,12.51,0,0,0,8.05,12.34c5.1,2.24,10.26,1.09,14.41-3,1.8-1.78,3.55-3.6,5.37-5.36a14.11,14.11,0,0,1,19.95,0h0q6.25,6.06,12.35,12.26a13.6,13.6,0,0,1,.38,19.24l-.38.38c-2,2-4,4-6,5.92a11.86,11.86,0,0,0-2.85,13,12.08,12.08,0,0,0,10.66,8.7c3.05.33,6.16.13,9.24.2,8.14.14,13.32,5.08,13.59,13.19q.27,8.83,0,17.69c-.29,8.4-5.61,13.39-14,13.5-2.64,0-5.43-.1-8.13,0a12.18,12.18,0,0,0-11.28,8.28A11.86,11.86,0,0,0,279.15,221c1.94,2,4,4,6,5.93a13.7,13.7,0,0,1,.28,19.37l-.28.28c-4.05,4.17-8.18,8.22-12.32,12.29A13.79,13.79,0,0,1,263,263ZM144.4,176.83a58.19,58.19,0,1,0,0-.27Z" class="cls-1"></path></g><g class="cls-2" id="Q83r0t-3"><path d="M263,263a13.74,13.74,0,0,1-9.92-4c-2-1.87-3.81-3.88-5.78-5.73-4.15-3.88-8.92-5-14.22-2.76A12.59,12.59,0,0,0,225,262.64c-.07,2.9.07,5.8-.07,8.69a13.68,13.68,0,0,1-13.89,13.48H194.66a13.92,13.92,0,0,1-14.16-13.66v-.32c-.07-2.9,0-5.8,0-8.69a12.29,12.29,0,0,0-8.21-11.64,12.07,12.07,0,0,0-13.73,2.64c-2,1.84-3.82,3.85-5.78,5.72a14.14,14.14,0,0,1-20,0l-.18-.18q-6-5.91-11.87-11.88c-5.82-5.93-5.8-14.12,0-20.05,1.83-1.87,3.76-3.64,5.57-5.54a12.15,12.15,0,0,0,2.82-13.71,12.34,12.34,0,0,0-11.6-8.28c-2.89-.14-5.79,0-8.7-.08-8.68-.32-14.18-6.07-14.19-14.76V169a13.61,13.61,0,0,1,12.86-14c3-.25,6-.16,9-.16,6,0,10.23-2.63,12.59-8.12,2.23-5.16,1-10.17-3.39-14.52-1.78-1.78-3.61-3.54-5.28-5.37a13.57,13.57,0,0,1,0-19.2l0,0q6.36-6.6,13-12.76a14.05,14.05,0,0,1,19.29.2c2,1.93,4,4,6,5.91a12.09,12.09,0,0,0,13.75,2.54,12.31,12.31,0,0,0,8.13-11.7c.06-2.63,0-5.42,0-8.12.19-8.73,6.08-14.52,14.82-14.52h15.16c8.38,0,14.26,5.71,14.51,14.16.11,2.64,0,5.28,0,7.92a12.51,12.51,0,0,0,8.05,12.34c5.1,2.24,10.26,1.09,14.41-3,1.8-1.78,3.55-3.6,5.37-5.36a14.11,14.11,0,0,1,19.95,0h0q6.25,6.06,12.35,12.26a13.6,13.6,0,0,1,.38,19.24l-.38.38c-2,2-4,4-6,5.92a11.86,11.86,0,0,0-2.85,13,12.08,12.08,0,0,0,10.66,8.7c3.05.33,6.16.13,9.24.2,8.14.14,13.32,5.08,13.59,13.19q.27,8.83,0,17.69c-.29,8.4-5.61,13.39-14,13.5-2.64,0-5.43-.1-8.13,0a12.18,12.18,0,0,0-11.28,8.28A11.86,11.86,0,0,0,279.15,221c1.94,2,4,4,6,5.93a13.7,13.7,0,0,1,.28,19.37l-.28.28c-4.05,4.17-8.18,8.22-12.32,12.29A13.79,13.79,0,0,1,263,263ZM144.4,176.83a58.19,58.19,0,1,0,0-.27Z" class="cls-3"></path></g><path d="M161.35,152.28a6,6,0,0,1,1,4.22,25.06,25.06,0,0,1-.6,4.23c-.66,2.75-1.78,5.63-.91,8.32a23.28,23.28,0,0,0,2.71,4.59,8.65,8.65,0,0,1,1.32,5.28,5.76,5.76,0,0,1-2.86,4.5c-2.18-4-5.65-7.19-8.51-10.78s-5.28-8-4.53-12.56a10.63,10.63,0,0,1,4.78-7.18C155.59,151.75,159.45,150,161.35,152.28Z" class="cls-4"></path><path d="M161.35,152.28a6,6,0,0,1,1,4.22,25.06,25.06,0,0,1-.6,4.23c-.66,2.75-1.78,5.63-.91,8.32a23.28,23.28,0,0,0,2.71,4.59,8.65,8.65,0,0,1,1.32,5.28,5.76,5.76,0,0,1-2.86,4.5c-2.18-4-5.65-7.19-8.51-10.78s-5.28-8-4.53-12.56a10.63,10.63,0,0,1,4.78-7.18C155.59,151.75,159.45,150,161.35,152.28Z" class="cls-5"></path><g id="Q83r0t-4"><path d="M259.14,263.05a13.68,13.68,0,0,1-9.91-4c-2-1.88-3.81-3.87-5.78-5.73-4.15-3.88-8.94-5-14.22-2.76a12.62,12.62,0,0,0-8.07,12.08c-.07,2.9,0,5.8,0,8.69a13.72,13.72,0,0,1-13.95,13.48H190.87a13.9,13.9,0,0,1-14.15-13.66c0-.1,0-.21,0-.32,0-2.89.07-5.8,0-8.69a12.28,12.28,0,0,0-8.19-11.64,12.1,12.1,0,0,0-13.75,2.64c-2,1.84-3.81,3.85-5.78,5.72a14.13,14.13,0,0,1-20,0l-.17-.17c-4-4-8-7.92-11.88-11.88-5.82-5.93-5.79-14.12,0-20.05,1.83-1.87,3.77-3.64,5.58-5.54a12.14,12.14,0,0,0,2.83-13.71,12.35,12.35,0,0,0-11.74-8.31c-2.9-.13-5.8,0-8.71-.08-8.66-.28-14.21-6-14.21-14.73V169a13.64,13.64,0,0,1,12.88-14c3-.25,6-.16,9-.16a12.68,12.68,0,0,0,12.57-8.12c2.24-5.16,1-10.17-3.39-14.52-1.78-1.78-3.6-3.54-5.28-5.37a13.56,13.56,0,0,1,0-19.17l0,0q6.33-6.6,13-12.78a14.06,14.06,0,0,1,19.34.31c2,1.92,4,4,6,5.91a12.11,12.11,0,0,0,13.74,2.49,12.28,12.28,0,0,0,8.13-11.7V83.73c.2-8.72,6.08-14.52,14.83-14.52h15.15c8.38,0,14.26,5.72,14.59,14.16.11,2.64,0,5.28,0,7.92a12.5,12.5,0,0,0,8.05,12.32c5.08,2.25,10.24,1.1,14.4-3,1.81-1.77,3.55-3.6,5.37-5.36a14.15,14.15,0,0,1,20,0c4.15,4,8.28,8.12,12.33,12.26a13.62,13.62,0,0,1,.37,19.26l-.37.36c-2,2-4.05,4-6,5.93A11.86,11.86,0,0,0,272.53,146a12.09,12.09,0,0,0,10.66,8.7c3.06.33,6.16.13,9.24.2,8.14.14,13.34,5.09,13.6,13.19.19,5.89.19,11.8,0,17.69-.23,8.44-5.51,13.47-14,13.53-2.72,0-5.43-.09-8.14,0a12.2,12.2,0,0,0-11.28,8.29,11.88,11.88,0,0,0,2.72,13.46c1.94,2,4,4,6,5.93a13.7,13.7,0,0,1,.27,19.38l-.27.28c-4,4.15-8.18,8.21-12.31,12.28A13.75,13.75,0,0,1,259.14,263.05ZM140.54,176.9a58.19,58.19,0,1,0,0-.26Z" class="cls-1"></path></g><path d="M209.57,253.36a15.61,15.61,0,0,0,3,3.05,5,5,0,0,1,1.7,1.48,5.15,5.15,0,0,1,.4,1.54c.54,3,3.42,5.76,6.39,5.08l1.42-10a4.75,4.75,0,0,0,0-2.31,4.83,4.83,0,0,0-1.32-1.75,58.23,58.23,0,0,1-9.24-11.78,7.62,7.62,0,0,0-2.52-3c-1.07-.62,0-1.4-1.21-1.06-3.19.9-5.37.85-12.79.78,0,0,2.34,3.17,3.37,4.44l5.45,6.77C204.87,247.54,208.56,253.36,209.57,253.36Z" class="cls-5"></path><g class="cls-6" id="Q83r0t-5"><path d="M346.81,157.93a6,6,0,0,1-3.72-2.88c-.6-1-1.14-2.12-1.74-3.15a5.47,5.47,0,0,0-5.69-2.93,5.55,5.55,0,0,0-4.91,4.12c-.4,1.22-.7,2.46-1.11,3.68a6.05,6.05,0,0,1-7.59,4h0c-2.3-.65-4.61-1.32-6.9-2a6.15,6.15,0,0,1-4.31-7.54.74.74,0,0,0,0-.14c.33-1.23.76-2.44,1.07-3.68a5.48,5.48,0,0,0-2-6,5.3,5.3,0,0,0-6.14-.59c-1.07.54-2.1,1.16-3.17,1.71a6.24,6.24,0,0,1-8.46-2.51l-.06-.13c-1.21-2.16-2.42-4.32-3.59-6.52a6,6,0,0,1,2.12-8.28l.37-.2c1-.57,2.05-1.08,3.05-1.66a5.28,5.28,0,0,0,2.89-5.47,5.41,5.41,0,0,0-3.88-4.94c-1.21-.43-2.47-.72-3.68-1.11a6.15,6.15,0,0,1-4.36-7.51c0-.17.1-.35.16-.52.64-2.17,1.32-4.36,1.93-6.59a6,6,0,0,1,7.19-4.35c1.32.27,2.55.69,3.82,1.06a5.62,5.62,0,0,0,6.4-1.75,5.56,5.56,0,0,0,.37-6.6c-.54-1-1.1-1.94-1.6-3a6,6,0,0,1,2.36-8.11l0,0c2.34-1.32,4.71-2.64,7.11-3.78a6.19,6.19,0,0,1,8.16,2.52c.62,1.06,1.17,2.19,1.81,3.24a5.34,5.34,0,0,0,5.5,2.79,5.41,5.41,0,0,0,4.89-4c.37-1.15.66-2.31,1-3.46a6.22,6.22,0,0,1,7.58-4.46l.51.16,6.41,1.89a6.16,6.16,0,0,1,4.53,7.46l-.09.35c-.28,1.12-.64,2.21-1,3.32a5.77,5.77,0,0,0,8.37,6.75c1-.53,1.95-1.09,2.94-1.6A6.23,6.23,0,0,1,371.88,88h0c1.27,2.23,2.5,4.47,3.71,6.73a6,6,0,0,1-2.23,8.19l-.23.12c-1.08.61-2.19,1.15-3.27,1.77a5.7,5.7,0,0,0,.62,10.15c1.26.51,2.64.81,4,1.22a5.65,5.65,0,0,1,4.27,6.75,4.94,4.94,0,0,1-.15.55c-.65,2.52-1.39,5-2.19,7.5a5.77,5.77,0,0,1-7,4.15,6.21,6.21,0,0,1-.61-.2c-1.15-.31-2.3-.71-3.46-1a5.36,5.36,0,0,0-5.8,2.11,5.27,5.27,0,0,0-.52,6c.57,1.1,1.22,2.15,1.8,3.25a6,6,0,0,1-2.29,8.25l-.15.09c-2.23,1.32-4.49,2.47-6.75,3.68A6,6,0,0,1,346.81,157.93ZM313,108.4a19,19,0,1,0,0-.08Z" class="cls-3"></path></g><g id="Q83r0t-6"><path d="M344.53,159a6.08,6.08,0,0,1-3.73-2.89c-.59-1-1.12-2.11-1.74-3.14a5.42,5.42,0,0,0-5.67-2.94,5.56,5.56,0,0,0-4.92,4.13c-.39,1.21-.69,2.47-1.11,3.67a6.06,6.06,0,0,1-7.57,4h0c-2.31-.66-4.61-1.34-6.9-2a6.16,6.16,0,0,1-4.32-7.56.56.56,0,0,0,0-.12c.33-1.24.75-2.46,1.07-3.7a5.45,5.45,0,0,0-2-6,5.36,5.36,0,0,0-6.15-.61c-1.07.54-2.1,1.16-3.17,1.72a6.24,6.24,0,0,1-8.47-2.47.41.41,0,0,1-.05-.09c-1.22-2.17-2.41-4.34-3.59-6.52a6.06,6.06,0,0,1,2.12-8.3l.37-.2c1-.57,2.06-1.08,3.05-1.65a5.38,5.38,0,0,0,2.9-5.46,5.45,5.45,0,0,0-3.89-5c-1.21-.41-2.47-.7-3.68-1.11a6.12,6.12,0,0,1-4.35-7.49c.05-.18.1-.35.16-.52l1.92-6.6A6,6,0,0,1,292,93.81c1.32.26,2.56.67,3.83,1A5.59,5.59,0,0,0,302.14,93a5.5,5.5,0,0,0,.37-6.6c-.53-1-1.09-1.94-1.6-2.93a6,6,0,0,1,2.39-8.13h0q3.49-2,7.11-3.8A6.22,6.22,0,0,1,318.6,74c.62,1.08,1.16,2.19,1.8,3.24a5.28,5.28,0,0,0,5.51,2.79,5.41,5.41,0,0,0,4.89-4c.37-1.14.66-2.31,1-3.45a6.21,6.21,0,0,1,7.55-4.46l.53.16,6.42,1.88a6.19,6.19,0,0,1,4.53,7.49l-.09.32c-.29,1.12-.64,2.23-1,3.34a5.77,5.77,0,0,0,8.36,6.74c1-.53,1.95-1.1,2.94-1.61A6.22,6.22,0,0,1,369.55,89h0q1.9,3.33,3.72,6.73A6,6,0,0,1,371,103.9l-.21.11c-1.07.62-2.19,1.16-3.27,1.77a5.7,5.7,0,0,0,.63,10.15c1.32.51,2.64.81,4,1.22a5.66,5.66,0,0,1,4.28,6.75c-.05.19-.1.38-.16.56-.65,2.52-1.32,5-2.19,7.5a5.77,5.77,0,0,1-7,4.15,6.17,6.17,0,0,1-.61-.19c-1.15-.33-2.28-.71-3.46-1a5.37,5.37,0,0,0-5.8,2.11,5.27,5.27,0,0,0-.52,6c.57,1.11,1.23,2.17,1.81,3.26a6.05,6.05,0,0,1-2.18,8.27l-.34.18c-2.23,1.32-4.49,2.47-6.74,3.68A6.13,6.13,0,0,1,344.53,159Zm-33.86-49.52a18.57,18.57,0,1,0,0-.09Z" class="cls-1"></path></g><path d="M248.53,201.29a4.82,4.82,0,0,1,1.32-.9,1.41,1.41,0,0,1,1.47.23,1.61,1.61,0,0,1,.27,1.48c-.13.5-.4,1-.52,1.47a8.12,8.12,0,0,1-.31,1.4,3.54,3.54,0,0,1-1.73,1.49,29.75,29.75,0,0,0-8.08,6.6,3.72,3.72,0,0,1-.72.71,3.06,3.06,0,0,1-2.95-.12,14.56,14.56,0,0,1-4.88-4.42,1.49,1.49,0,0,1-.34-.63,1.22,1.22,0,0,1,.1-.65c1.32-3.43,4.85-2.25,7.7-2.73A18.45,18.45,0,0,0,248.53,201.29Z" class="cls-7"></path><path d="M157.22,219.65s7.74,9.6,18.35,4.88,23-20.32,23-20.32,16.13,5.79,27,5.6l7.31.26a5.18,5.18,0,0,0,2.52-5.7s-32-12-35.06-12.36a18.26,18.26,0,0,0-10.56,1.76c-4.29,2-20.84,9.8-20.84,9.8Z" class="cls-8"></path><path d="M157.22,219.65s7.74,9.6,18.35,4.88,23-20.32,23-20.32,16.13,5.79,27,5.6l7.31.26a5.18,5.18,0,0,0,2.52-5.7s-32-12-35.06-12.36a18.26,18.26,0,0,0-10.56,1.76c-4.29,2-20.84,9.8-20.84,9.8Z" class="cls-5"></path><path d="M159.32,209.81s-2.41,12.74,8.5,16.72,32,1,32,1,7.56,15.4,15.5,22.83l5.06,5.28a5.16,5.16,0,0,0,5.78-2.33S211.5,222.36,209.55,220a18.31,18.31,0,0,0-8.85-6.12c-4.48-1.52-30.11-10.64-30.11-10.64Z" class="cls-8"></path><path d="M237.69,260.21a4.88,4.88,0,0,1,1.56.28,1.42,1.42,0,0,1,.91,1.2,1.56,1.56,0,0,1-.84,1.23c-.44.27-.95.43-1.39.71a9.55,9.55,0,0,1-1.2.79,3.56,3.56,0,0,1-2.28-.15,29.44,29.44,0,0,0-10.36-.89,4.35,4.35,0,0,1-1,0,3.06,3.06,0,0,1-2-2.14,14.74,14.74,0,0,1-.44-6.6,1.61,1.61,0,0,1,.2-.7,1.27,1.27,0,0,1,.53-.38c3.32-1.54,5,1.74,7.43,3.39A18.45,18.45,0,0,0,237.69,260.21Z" class="cls-7"></path><polygon points="203.01 164.95 198 192.15 176.91 197.56 176.61 195.69 195.9 190.36 200.59 164.65 203.01 164.95" class="cls-1"></polygon><polygon points="196.38 182.02 188.56 183.48 176.61 195.69 195.9 190.36 196.38 182.02" class="cls-1"></polygon><polygon points="196.38 182.02 188.56 183.48 176.61 195.69 195.9 190.36 196.38 182.02" class="cls-9"></polygon><polygon points="196.32 182.9 193.17 183.48 185.61 192.15 194.36 190.32 196.32 182.9" class="cls-1"></polygon><polygon points="194.77 191 199.58 164.18 213.24 157.74 214.18 158.17 195.9 190.36 194.77 191" class="cls-1"></polygon><path d="M161.08,157.61c.51.61,1.4.87,1.79,1.57s0,1.86-.17,2.81c-.24,1.32.13,2.64-.09,4a1.64,1.64,0,0,1-.33.78,2,2,0,0,1-.62.37,10,10,0,0,1-2.8.63.8.8,0,0,0-.54.16.73.73,0,0,0-.16.53,15.21,15.21,0,0,0,1.32,7.16c.33.74.71,1.65.24,2.31a1.68,1.68,0,0,1-.68.49c-1.71.72-3.66-.32-5.1-1.51a21.44,21.44,0,0,1-3.45-3.61,3.91,3.91,0,0,1-.68-1.23,4.6,4.6,0,0,1,0-1.81,29.9,29.9,0,0,0,0-6.13c-.29-2.64-.93-5.28-.33-7.83a4.06,4.06,0,0,1,1.24-2.28,5.1,5.1,0,0,1,2.64-.9c1.9-.24,4-.33,5.51.83C159.23,154.39,160.44,156.86,161.08,157.61Z" class="cls-7"></path><path d="M150,172.23s8.41,2.73,11.26,5.48,7.07,4.45,6.6,10.64,2.82,15,2.82,15-1.61,11.14-9.41,15.17-5.7,2.82-5.7,2.82-7.64-18.87-10.25-24.05S142.26,172.62,150,172.23Z" class="cls-10"></path><path d="M163.94,214.37a2.88,2.88,0,0,1-.15,1.83,3.59,3.59,0,0,1-1.08,1.08,11.82,11.82,0,0,1-3.27,1.92,4,4,0,0,1-3.63-.41,5.68,5.68,0,0,1-1.32-1.68,78,78,0,0,1-7.65-15.28A33.91,33.91,0,0,1,145.15,185l5.19,5.85a43.74,43.74,0,0,0,7.12,6.88,14.67,14.67,0,0,0,9.24,3c3.81-.26,4.12,2.1,2.49,5.28s-3.46,1.56-6.16,1.09C161.72,209.17,163.56,212.16,163.94,214.37Z" class="cls-5"></path><path d="M155.43,171.07a12.3,12.3,0,0,1,.38,4,3.84,3.84,0,0,1-.37,1.56,4,4,0,0,1-1.11,1.17,17.71,17.71,0,0,1-3.63,2.15,29.6,29.6,0,0,0-3.55,1.59l-.09.06a8.2,8.2,0,0,0-3.53,4.62c-.14.45-1.19-.84-1.23-.91a13.58,13.58,0,0,1-.78-1.74,20.7,20.7,0,0,1-.87-4.54c-.55-3.27-4.63-8.89-2.64-12.09.69-1.11,1.9-1.77,2.76-2.74h0c1.86-2.18,1.63-5.39,2.64-8.07a9.53,9.53,0,0,1,5-5.41c3.15-1.42,9.24-1.39,9.54,3.21.14,2.05-1.14,3.37-2.19,4.92a10.39,10.39,0,0,0-2.09,5.36C153.57,166.53,154.83,168.75,155.43,171.07Z" class="cls-4"></path><path d="M154.64,181.93s7.07,12.41,8.19,13.2-8.29,8.38-8.29,8.38-8.89-11.73-9.48-17.37S150,177.31,154.64,181.93Z" class="cls-10"></path><path d="M154.25,201.73s1.06,4.19,6.27,3.24l23.16-4.15c1.45-1.09,3.59-1.57,4.55-3.11.47-.72.61-1.61,1.05-2.36a4.78,4.78,0,0,1,2.64-2,13.26,13.26,0,0,1,3.24-.62,1.39,1.39,0,0,0-.33-1.77,3.23,3.23,0,0,0-1.85-.64,10.57,10.57,0,0,0-7.68,2.42,8.6,8.6,0,0,1-2,1.54,6.71,6.71,0,0,1-1.76.4c-6.76.78-13.59.45-20.33,1.25a12,12,0,0,0-4.57,1.32A5.54,5.54,0,0,0,154.25,201.73Z" class="cls-7"></path><path d="M146.79,161.41c-.1,2.43.85,4.83.58,7.26a32.46,32.46,0,0,1-1.32,4.75c-.54,2.11-.8,4.9.37,6.85a10.16,10.16,0,0,1,.66,1.32,8.14,8.14,0,0,0-3.54,4.62c-.13.45-1.19-.85-1.23-.91q-.44-.86-.78-1.74a20.7,20.7,0,0,1-.87-4.54c-.55-3.28-4.63-8.9-2.64-12.09.69-1.11,1.9-1.77,2.76-2.75h0a7.14,7.14,0,0,0,.83-.72,29.59,29.59,0,0,0,2.81-4.29,13.1,13.1,0,0,1,6.83-5.17A9.35,9.35,0,0,0,146.79,161.41Z" class="cls-11"></path><polygon points="214.18 158.17 200.59 164.65 195.9 190.36 198 192.15 208.59 184.57 214.18 158.17" class="cls-1"></polygon><polygon points="214.18 158.17 200.59 164.65 195.9 190.36 198 192.15 208.59 184.57 214.18 158.17" class="cls-12"></polygon><polygon points="186.44 186.33 190.09 185.93 186.72 189.92 182.92 190.07 186.44 186.33" class="cls-1"></polygon></svg>